<?xml version="1.0" encoding="utf-8"?>
<!-- Generator: Adobe Illustrator 16.0.0, SVG Export Plug-In . SVG Version: 6.00 Build 0)  -->
<!DOCTYPE svg PUBLIC "-//W3C//DTD SVG 1.1//EN" "http://www.w3.org/Graphics/SVG/1.1/DTD/svg11.dtd">
<svg version="1.1" id="Layer_2" xmlns="http://www.w3.org/2000/svg" xmlns:xlink="http://www.w3.org/1999/xlink" x="0px" y="0px"
	 width="303.875px" height="512px" viewBox="9.062 0 303.875 512" enable-background="new 9.062 0 303.875 512"
	 xml:space="preserve">
<g id="Page-1" sketch:type="MSPage">
	<g id="ic_cast_black_24dp" sketch:type="MSArtboardGroup">
		<g id="ic_remove_circle_white_24dp" sketch:type="MSLayerGroup">
			<path id="cast" sketch:type="MSShapeGroup" d="M9.062,334.625v41.438H50.5C50.5,353.132,31.993,334.625,9.062,334.625
				L9.062,334.625z M9.062,279.375V307c38.119,0,69.062,30.943,69.062,69.062h27.625C105.75,322.606,62.519,279.375,9.062,279.375
				L9.062,279.375z M9.062,224.125v27.625c68.651,0,124.312,55.654,124.312,124.312H161C161,292.081,92.902,224.125,9.062,224.125
				L9.062,224.125z M285.312,127.438H36.688c-15.195,0-27.625,12.43-27.625,27.625V196.5h27.625v-41.438h248.625v193.375h-96.688
				v27.625h96.688c15.188,0,27.625-12.437,27.625-27.625V155.062C312.938,139.868,300.501,127.438,285.312,127.438L285.312,127.438z
				"/>
			<rect id="bounds" x="-4.75" y="86" sketch:type="MSShapeGroup" fill="none" width="331.5" height="331.5">
			</rect>
		</g>
	</g>
	<g id="assets" transform="translate(-208.000000, -106.000000)" sketch:type="MSLayerGroup">
		<g id="_x36_4px" transform="translate(0.000000, 114.000000)">
		</g>
	</g>
</g>
</svg>
