<?xml version="1.0" encoding="utf-8"?>
<!-- Generator: Adobe Illustrator 16.0.0, SVG Export Plug-In . SVG Version: 6.00 Build 0)  -->
<!DOCTYPE svg PUBLIC "-//W3C//DTD SVG 1.1//EN" "http://www.w3.org/Graphics/SVG/1.1/DTD/svg11.dtd">
<svg version="1.1" id="Layer_2_2_" xmlns="http://www.w3.org/2000/svg" xmlns:xlink="http://www.w3.org/1999/xlink" x="0px" y="0px"
	 width="426.698px" height="512px" viewBox="-3.698 0 426.698 512" enable-background="new -3.698 0 426.698 512"
	 xml:space="preserve">
<g>
	<path d="M423,243.531H288.135l-1.371-5.764c-8.26-34.705-38.832-58.944-74.346-58.944c-35.502,0-66.095,24.242-74.394,58.952
		l-1.376,5.756H-3.698V129.576H423V243.531z M299.78,228.531H408v-83.955H11.302v83.955h113.713
		c5.402-17.415,16.009-33.076,30.292-44.57c16.137-12.986,36.419-20.137,57.111-20.137c20.689,0,40.968,7.152,57.1,20.138
		C283.8,195.458,294.396,211.119,299.78,228.531z"/>
	<path d="M212.418,308.253c-29.067,0-52.716-23.652-52.716-52.725c0-29.064,23.648-52.709,52.716-52.709
		c29.064,0,52.71,23.645,52.71,52.709C265.128,284.601,241.482,308.253,212.418,308.253z M212.418,217.819
		c-20.796,0-37.716,16.916-37.716,37.709c0,20.802,16.919,37.725,37.716,37.725c20.793,0,37.71-16.923,37.71-37.725
		C250.128,234.735,233.211,217.819,212.418,217.819z"/>
	<path d="M423,381.484H-3.698v-113.98h140.347l1.375,5.757c8.292,34.698,38.884,58.933,74.394,58.933
		c35.521,0,66.094-24.23,74.345-58.925l1.371-5.765H423V381.484z M11.302,366.484H408v-83.98H299.781
		c-5.384,17.417-15.981,33.079-30.266,44.57c-16.127,12.975-36.404,20.119-57.098,20.119c-40.486,0-75.624-26.312-87.413-64.689
		H11.302V366.484z"/>
</g>
</svg>
