<?xml version="1.0" encoding="utf-8"?>
<!-- Generator: Adobe Illustrator 16.0.0, SVG Export Plug-In . SVG Version: 6.00 Build 0)  -->
<!DOCTYPE svg PUBLIC "-//W3C//DTD SVG 1.1//EN" "http://www.w3.org/Graphics/SVG/1.1/DTD/svg11.dtd">
<svg version="1.1" id="Layer_2_2_" xmlns="http://www.w3.org/2000/svg" xmlns:xlink="http://www.w3.org/1999/xlink" x="0px" y="0px"
	 width="428.698px" height="512px" viewBox="-4.698 0 428.698 512" enable-background="new -4.698 0 428.698 512"
	 xml:space="preserve">
<g>
	<path d="M424,244.531H287.345l-1.554-6.532c-8.152-34.252-38.324-58.175-73.373-58.175c-35.038,0-65.23,23.926-73.421,58.184
		l-1.56,6.523H-4.698V128.576H424V244.531z M300.515,227.531H407v-81.955H12.302v81.955h111.979
		c5.526-17.322,16.154-32.886,30.399-44.35c16.314-13.128,36.819-20.358,57.738-20.358c20.917,0,41.418,7.23,57.727,20.359
		C284.388,194.648,295.006,210.213,300.515,227.531z"/>
	<path d="M212.418,309.253c-29.619,0-53.716-24.101-53.716-53.725c0-29.615,24.097-53.709,53.716-53.709
		c29.616,0,53.71,24.094,53.71,53.709C266.128,285.152,242.034,309.253,212.418,309.253z M212.418,218.819
		c-20.245,0-36.716,16.468-36.716,36.709c0,20.25,16.471,36.725,36.716,36.725c20.242,0,36.71-16.475,36.71-36.725
		C249.128,235.287,232.66,218.819,212.418,218.819z"/>
	<path d="M424,382.484H-4.698v-115.98h142.136l1.559,6.524c8.184,34.247,38.375,58.165,73.421,58.165
		c35.057,0,65.229-23.915,73.372-58.156l1.554-6.533H424V382.484z M12.302,365.484H407v-81.98H300.516
		c-5.508,17.325-16.126,32.889-30.373,44.35c-16.304,13.116-36.805,20.34-57.725,20.34c-20.923,0-41.427-7.223-57.736-20.339
		c-14.248-11.458-24.877-27.023-30.402-44.351H12.302V365.484z"/>
</g>
</svg>
