<?xml version="1.0" encoding="utf-8"?>
<!-- Generator: Adobe Illustrator 24.1.0, SVG Export Plug-In . SVG Version: 6.00 Build 0)  -->
<svg version="1.1" id="Layer_3" xmlns="http://www.w3.org/2000/svg" xmlns:xlink="http://www.w3.org/1999/xlink" x="0px" y="0px"
	 viewBox="0 0 500 500" style="enable-background:new 0 0 500 500;" xml:space="preserve">
<style type="text/css">
	.st0{fill:#FFFFFF;}
</style>
<g>
	<path d="M382,306c-39.77,0-72,32.23-72,72c0,39.77,32.23,72,72,72c39.77,0,72-32.23,72-72C454,338.23,421.77,306,382,306
		 M370.89,403.51c-0.83,0.83-2.01,1.52-3.05,1.52c-1.04,0-2.22-0.73-3.08-1.56l-19.38-19.38l6.16-6.16l16.34,16.34l43.2-43.51
		l6.06,6.27L370.89,403.51"/>
	<path d="M338.65,250C338.65,250,338.65,250,338.65,250H58.02c0,0,0,0,0,0c-5.78,0-11.05,2.37-14.83,6.16
		c-3.79,3.78-6.17,9.06-6.16,14.84v158c0,5.78,2.37,11.05,6.16,14.84c3.78,3.79,9.05,6.16,14.83,6.16c0,0,0,0,0,0h280.63
		c0,0,0,0,0,0c0.63,0,1.26-0.03,1.88-0.08c-1.69-0.98-3.34-2.01-4.95-3.1c-3.08-2.08-6.01-4.36-8.77-6.82H58.02
		c-3.02,0-5.75-1.23-7.76-3.24c-2.01-2.02-3.23-4.74-3.24-7.76V271c0-3.02,1.23-5.75,3.24-7.76c2.02-2.01,4.74-3.23,7.76-3.24
		h280.63c3.02,0,5.75,1.23,7.76,3.24c2.01,2.02,3.23,4.74,3.24,7.76v30.54c0.01-0.01,0.03-0.01,0.04-0.02
		c3.22-1.36,6.55-2.53,9.96-3.48V271c0-5.78-2.37-11.05-6.16-14.84C349.7,252.38,344.43,250,338.65,250"/>
	<path d="M80.44,290.01c15.67,0,31.33,0,47,0c6.43,0,6.45-10,0-10c-15.67,0-31.33,0-47,0C74,280.01,73.99,290.01,80.44,290.01z"/>
	<path d="M80.44,311c15.67,0,31.33,0,47,0c6.43,0,6.45-10,0-10c-15.67,0-31.33,0-47,0C74,301,73.99,311,80.44,311z"/>
	<path d="M80.44,331.99c15.67,0,31.33,0,47,0c6.43,0,6.45-10,0-10c-15.67,0-31.33,0-47,0C74,321.99,73.99,331.99,80.44,331.99z"/>
	<path d="M80.44,352.97c15.67,0,31.33,0,47,0c6.43,0,6.45-10,0-10c-15.67,0-31.33,0-47,0C74,342.97,73.99,352.97,80.44,352.97z"/>
	<path d="M80.44,373.96c15.67,0,31.33,0,47,0c6.43,0,6.45-10,0-10c-15.67,0-31.33,0-47,0C74,363.96,73.99,373.96,80.44,373.96z"/>
	<path d="M80.44,394.94c15.67,0,31.33,0,47,0c6.43,0,6.45-10,0-10c-15.67,0-31.33,0-47,0C74,384.94,73.99,394.94,80.44,394.94z"/>
	<path d="M80.44,415.93c15.67,0,31.33,0,47,0c6.43,0,6.45-10,0-10c-15.67,0-31.33,0-47,0C74,405.93,73.99,415.93,80.44,415.93z"/>
	<path d="M171.9,290.01c15.67,0,31.33,0,47,0c6.43,0,6.45-10,0-10c-15.67,0-31.33,0-47,0C165.46,280.01,165.45,290.01,171.9,290.01z
		"/>
	<path d="M171.9,311c15.67,0,31.33,0,47,0c6.43,0,6.45-10,0-10c-15.67,0-31.33,0-47,0C165.46,301,165.45,311,171.9,311z"/>
	<path d="M171.9,331.99c15.67,0,31.33,0,47,0c6.43,0,6.45-10,0-10c-15.67,0-31.33,0-47,0C165.46,321.99,165.45,331.99,171.9,331.99z
		"/>
	<path d="M171.9,352.97c15.67,0,31.33,0,47,0c6.43,0,6.45-10,0-10c-15.67,0-31.33,0-47,0C165.46,342.97,165.45,352.97,171.9,352.97z
		"/>
	<path d="M171.9,373.96c15.67,0,31.33,0,47,0c6.43,0,6.45-10,0-10c-15.67,0-31.33,0-47,0C165.46,363.96,165.45,373.96,171.9,373.96z
		"/>
	<path d="M171.9,394.94c15.67,0,31.33,0,47,0c6.43,0,6.45-10,0-10c-15.67,0-31.33,0-47,0C165.46,384.94,165.45,394.94,171.9,394.94z
		"/>
	<path d="M171.9,415.93c15.67,0,31.33,0,47,0c6.43,0,6.45-10,0-10c-15.67,0-31.33,0-47,0C165.46,405.93,165.45,415.93,171.9,415.93z
		"/>
	<path d="M265.26,290.01c15.67,0,31.33,0,47,0c6.43,0,6.45-10,0-10c-15.67,0-31.33,0-47,0
		C258.83,280.01,258.82,290.01,265.26,290.01z"/>
	<path d="M265.26,311c15.67,0,31.33,0,47,0c6.43,0,6.45-10,0-10c-15.67,0-31.33,0-47,0C258.83,301,258.82,311,265.26,311z"/>
	<path d="M312.26,321.99c-15.67,0-31.33,0-47,0c-6.43,0-6.45,10,0,10c15.67,0,31.33,0,47,0c0.23,0,0.46-0.01,0.67-0.04
		c0.08-0.12,0.16-0.24,0.24-0.36c1.22-1.81,2.52-3.57,3.88-5.28C316.79,324.05,315.2,321.99,312.26,321.99"/>
	<g>
		<path class="st0" d="M317.06,326.31c-1.36,1.71-2.65,3.46-3.88,5.28c-0.08,0.12-0.16,0.24-0.24,0.36
			C315.98,331.59,317.35,328.83,317.06,326.31"/>
	</g>
	<path d="M306.73,342.97c-13.82,0-27.65,0-41.47,0c-6.43,0-6.45,10,0,10c12.53,0,25.05,0,37.58,0
		C303.93,349.53,305.23,346.2,306.73,342.97"/>
	<path d="M300.18,363.96c-11.64,0-23.28,0-34.92,0c-6.43,0-6.45,10,0,10c11.28,0,22.55,0,33.83,0
		C299.26,370.57,299.63,367.23,300.18,363.96"/>
	<path d="M299.29,384.94c-11.34,0-22.68,0-34.02,0c-6.43,0-6.45,10,0,10c11.82,0,23.65,0,35.47,0
		C300.05,391.67,299.57,388.33,299.29,384.94"/>
	<path d="M303.82,405.93c-12.85,0-25.7,0-38.55,0c-6.43,0-6.45,10,0,10c14.3,0,28.59,0,42.89,0c-0.94-1.83-1.82-3.71-2.63-5.62
		C304.92,408.87,304.35,407.41,303.82,405.93"/>
</g>
</svg>
