<?xml version="1.0" encoding="utf-8"?>
<!-- Generator: Adobe Illustrator 24.1.0, SVG Export Plug-In . SVG Version: 6.00 Build 0)  -->
<svg version="1.1" id="Layer_5" xmlns="http://www.w3.org/2000/svg" xmlns:xlink="http://www.w3.org/1999/xlink" x="0px" y="0px"
	 viewBox="0 0 312.97 500" style="enable-background:new 0 0 312.97 500;" xml:space="preserve">
<g>
	<path d="M240.97,306c-39.77,0-72,32.23-72,72s32.23,72,72,72s72-32.23,72-72S280.74,306,240.97,306 M229.86,403.51
		c-0.83,0.83-2.01,1.52-3.05,1.52c-1.04,0-2.22-0.73-3.08-1.56l-19.38-19.38l6.16-6.16l16.34,16.34l43.2-43.51l6.06,6.27
		L229.86,403.51"/>
	<path d="M212.45,56.16c-3.78-3.79-9.05-6.16-14.83-6.16l0,0H20.99l0,0c-5.78,0-11.05,2.38-14.83,6.16C2.37,59.94-0.01,65.22,0,71
		v358c0,5.78,2.37,11.05,6.16,14.84c3.78,3.79,9.05,6.16,14.83,6.16l0,0h176.63l0,0c0.63,0,1.26-0.03,1.88-0.08
		c-1.69-0.98-3.34-2.01-4.95-3.1c-3.08-2.08-6.01-4.36-8.77-6.82H20.98c-3.02,0-5.75-1.23-7.76-3.24c-2.01-2.02-3.23-4.74-3.24-7.76
		V71c0-3.02,1.23-5.75,3.24-7.76c2.02-2.01,4.74-3.23,7.76-3.24H51.6v1.51c0,4.13,1.7,7.9,4.4,10.6s6.47,4.4,10.6,4.4h84.72
		c4.13,0,7.9-1.7,10.6-4.4c2.7-2.7,4.4-6.47,4.4-10.6V60h31.29c3.02,0,5.75,1.23,7.76,3.24c2.01,2.02,3.23,4.74,3.24,7.76v230.54
		c0.01-0.01,0.03-0.01,0.04-0.02c3.22-1.36,6.55-2.53,9.96-3.48V71C218.62,65.22,216.24,59.95,212.45,56.16z"/>
	<polygon points="134.3,196.43 113.45,197.26 125.56,178.57 118.95,175 109.3,194.64 99.69,175 93.05,178.57 105.16,197.26 
		84.3,196.43 84.3,203.57 105.01,202.45 93.42,221.43 99.66,225 109.3,205.36 118.94,225 125.19,221.43 113.6,202.45 134.3,203.57 	
		"/>
	<polygon points="71.45,196.43 50.6,197.26 62.71,178.57 56.1,175 46.45,194.64 36.84,175 30.2,178.57 42.3,197.26 21.45,196.43 
		21.45,203.57 42.16,202.45 30.57,221.43 36.81,225 46.45,205.36 56.09,225 62.34,221.43 50.75,202.45 71.45,203.57 	"/>
	<polygon points="197.55,196.43 176.7,197.26 188.81,178.57 182.19,175 172.55,194.64 162.93,175 156.29,178.57 168.4,197.26 
		147.55,196.43 147.55,203.57 168.25,202.45 156.66,221.43 162.91,225 172.55,205.36 182.19,225 188.43,221.43 176.84,202.45 
		197.55,203.57 	"/>
</g>
</svg>
