<?xml version="1.0" encoding="utf-8"?>
<!-- Generator: Adobe Illustrator 16.0.0, SVG Export Plug-In . SVG Version: 6.00 Build 0)  -->
<!DOCTYPE svg PUBLIC "-//W3C//DTD SVG 1.1//EN" "http://www.w3.org/Graphics/SVG/1.1/DTD/svg11.dtd">
<svg version="1.1" id="Layer_1" xmlns="http://www.w3.org/2000/svg" xmlns:xlink="http://www.w3.org/1999/xlink" x="0px" y="0px"
	 width="466px" height="512px" viewBox="21.5 0 466 512" enable-background="new 21.5 0 466 512" xml:space="preserve">
<g id="Layer_2">
	<path d="M159.599,467.48h-55.293l90.523-172.342h-90.616l-49.198,67.757H22.501l19.14-110.937L22.507,140.683h32.508l49.198,67.758
		h90.616L104.305,36.099h55.293l150.46,172.342h137.527l0.19,0.009c0.398,0.019,39.861,2.373,39.861,43.182v0.268
		c0.001,40.798-39.46,43.154-39.858,43.173l-0.379,0.009l-137.339,0.056L159.599,467.48z M130.782,451.48h21.545l150.459-172.34
		l144.342-0.059c0.903-0.077,7.027-0.712,12.858-4.177c7.84-4.656,11.65-12.182,11.65-23.005l-0.001-0.238
		c0-10.858-3.812-18.386-11.651-23.044c-5.783-3.437-11.854-4.089-12.871-4.177H302.787L152.327,52.099h-21.545l90.523,172.342
		H96.057l-49.198-67.758h-5.366l16.383,95.28l-16.378,94.933h5.361l49.198-67.757h125.248L130.782,451.48z"/>
</g>
</svg>
