<?xml version="1.0" encoding="utf-8"?>
<!-- Generator: Adobe Illustrator 16.0.0, SVG Export Plug-In . SVG Version: 6.00 Build 0)  -->
<!DOCTYPE svg PUBLIC "-//W3C//DTD SVG 1.1//EN" "http://www.w3.org/Graphics/SVG/1.1/DTD/svg11.dtd">
<svg version="1.1" id="Layer_2" xmlns="http://www.w3.org/2000/svg" xmlns:xlink="http://www.w3.org/1999/xlink" x="0px" y="0px"
	 width="303.875px" height="512px" viewBox="0 0 303.875 512" enable-background="new 0 0 303.875 512" xml:space="preserve">
<rect id="bounds" x="-4.75" y="86" fill="none" width="331.5" height="331.5"/>
<g id="assets" transform="translate(-208.000000, -106.000000)">
	<g id="_x36_4px" transform="translate(0.000000, 114.000000)">
	</g>
</g>
<g>
	<polyline fill="none" points="36.688,348.438 285.312,348.438 285.312,155.062 36.688,155.062 	"/>
	<path d="M9.063,348.438c0,15.193,12.437,27.625,27.625,27.625h248.625c15.188,0,27.625-12.438,27.625-27.625V155.062
		c0-15.194-12.437-27.624-27.625-27.624H36.688c-15.195,0-27.625,12.43-27.625,27.625 M36.688,155.062h248.625v193.375H36.688"/>
</g>
<polygon points="201.238,199.599 201.207,179.556 260.245,179.648 260.245,179.648 260.245,179.648 260.337,238.687 
	240.294,238.654 240.201,199.691 "/>
<polygon points="120.106,304.844 120.137,324.886 61.099,324.794 61.099,324.794 61.099,324.794 61.007,265.756 81.05,265.788 
	81.143,304.751 "/>
<polygon points="240.295,265.787 260.337,265.756 260.244,324.794 260.244,324.794 260.244,324.794 201.207,324.886 
	201.238,304.843 240.201,304.75 "/>
<polygon points="81.049,238.655 61.007,238.687 61.099,179.648 61.099,179.648 61.099,179.648 120.137,179.557 120.105,199.6 
	81.142,199.692 "/>
</svg>
