<?xml version="1.0" encoding="utf-8"?>
<!-- Generator: Adobe Illustrator 16.0.0, SVG Export Plug-In . SVG Version: 6.00 Build 0)  -->
<!DOCTYPE svg PUBLIC "-//W3C//DTD SVG 1.1//EN" "http://www.w3.org/Graphics/SVG/1.1/DTD/svg11.dtd">
<svg version="1.1" id="Layer_2" xmlns="http://www.w3.org/2000/svg" xmlns:xlink="http://www.w3.org/1999/xlink" x="0px" y="0px"
	 width="303.875px" height="512px" viewBox="0 0 303.875 512" enable-background="new 0 0 303.875 512" xml:space="preserve">
<rect id="bounds" x="-4.75" y="86" fill="none" width="331.5" height="331.5"/>
<g id="assets" transform="translate(-208.000000, -106.000000)">
	<g id="_x36_4px" transform="translate(0.000000, 114.000000)">
	</g>
</g>
<g>
	<polyline fill="none" points="36.688,348.438 285.312,348.438 285.312,155.062 36.688,155.062 	"/>
	<path d="M9.063,348.438c0,15.193,12.437,27.624,27.625,27.624h248.625c15.188,0,27.625-12.438,27.625-27.625V155.062
		c0-15.194-12.437-27.624-27.625-27.624H36.688c-15.195,0-27.625,12.43-27.625,27.625 M36.688,155.062h248.625v193.375
		l-248.625,0.001"/>
</g>
<polygon points="203.238,197.599 203.207,177.556 262.245,177.648 262.245,177.648 262.245,177.648 262.337,236.687 
	242.294,236.654 242.201,197.691 "/>
<polygon points="118.106,306.844 118.137,326.886 59.099,326.794 59.099,326.794 59.099,326.794 59.007,267.756 79.05,267.788 
	79.143,306.751 "/>
<polygon points="242.295,267.787 262.337,267.756 262.244,326.794 262.244,326.794 262.244,326.794 203.207,326.886 
	203.238,306.843 242.201,306.75 "/>
<polygon points="79.049,236.655 59.007,236.687 59.099,177.648 59.099,177.648 59.099,177.648 118.137,177.557 118.105,197.6 
	79.142,197.692 "/>
</svg>
