<?xml version="1.0" encoding="utf-8"?>
<!-- Generator: Adobe Illustrator 16.0.0, SVG Export Plug-In . SVG Version: 6.00 Build 0)  -->
<!DOCTYPE svg PUBLIC "-//W3C//DTD SVG 1.1//EN" "http://www.w3.org/Graphics/SVG/1.1/DTD/svg11.dtd">
<svg version="1.1" id="Layer_1" xmlns="http://www.w3.org/2000/svg" xmlns:xlink="http://www.w3.org/1999/xlink" x="0px" y="0px"
	 width="416px" height="512px" viewBox="0 0 416 512" enable-background="new 0 0 416 512" xml:space="preserve">
<g>
	<path d="M184.365,233.974c3.595,2.642,7.727,3.925,12.634,3.925c5.129,0,9.228-1.259,12.533-3.848
		c3.006-2.354,4.467-5.805,4.467-10.552c0-1.534-0.231-3.27-0.688-5.161c-0.397-1.64-1.201-3.259-2.387-4.807
		c-1.143-1.489-2.82-2.782-4.98-3.837c-2.171-1.057-5.18-1.594-8.944-1.594c-2.355,0-4.654,0.368-6.836,1.095
		c-2.141,0.716-4.047,1.735-5.665,3.029c-1.534,1.227-2.706,2.726-3.583,4.581c-0.874,1.851-1.317,4.102-1.317,6.694
		C179.599,228.195,181.158,231.621,184.365,233.974z"/>
	<path d="M211.409,270.061c-1.806-1.643-3.929-2.926-6.307-3.812c-2.406-0.895-5.067-1.348-7.902-1.348
		c-6.061,0-11.007,1.582-15.116,4.836c-3.825,3.027-5.684,7.397-5.684,13.363c0,3.014,0.552,5.752,1.64,8.143
		c1.109,2.443,2.587,4.543,4.397,6.24c1.801,1.693,4.002,3.026,6.547,3.965c2.607,0.965,5.369,1.453,8.216,1.453
		c2.945,0,5.646-0.479,8.029-1.42c2.384-0.941,4.513-2.285,6.33-3.993c1.797-1.688,3.149-3.683,4.14-6.101
		c0.997-2.436,1.502-5.156,1.502-8.087c0-2.729-0.515-5.226-1.53-7.419C214.632,273.646,213.198,271.686,211.409,270.061z"/>
	<path d="M366.5,109.5H50c-27.019,0-49,21.981-49,49v194c0,27.02,21.981,49,49,49h316.5c27.019,0,49-21.98,49-49v-194
		C415.5,131.481,393.519,109.5,366.5,109.5z M124.4,329.5H88v-90.8H52.801v-29.51l4.109,0.112c0.627,0.017,1.251,0.026,1.873,0.026
		c3.966,0,7.861-0.356,11.576-1.058c4.107-0.773,7.836-2.152,11.085-4.1c3.165-1.901,5.886-4.448,8.085-7.572
		c2.16-3.073,3.612-7.007,4.315-11.691l0.511-3.407H124.4V329.5z M248.607,305.625c-3.268,5.955-7.656,10.971-13.049,14.906
		c-5.293,3.861-11.365,6.793-18.054,8.713c-6.599,1.895-13.43,2.855-20.305,2.855c-7.11,0-14.08-0.886-20.718-2.632
		c-6.776-1.782-12.939-4.649-18.319-8.522c-5.466-3.936-9.897-8.955-13.17-14.922C141.68,299.988,140,292.746,140,284.5
		c0-9.793,2.6-18.146,7.728-24.834c3.27-4.266,7.412-7.648,12.375-10.115c-3.39-2.15-6.209-4.901-8.43-8.232
		c-3.896-5.841-5.872-12.711-5.872-20.419c0-6.954,1.597-13.217,4.745-18.615c3.073-5.27,7.12-9.723,12.026-13.237
		c4.818-3.452,10.312-6.074,16.33-7.794c5.931-1.695,12.021-2.554,18.099-2.554c9.187,0,17.136,1.462,23.624,4.345
		c6.443,2.866,11.744,6.425,15.754,10.577c4.036,4.184,6.987,8.756,8.773,13.592c1.757,4.76,2.647,9.163,2.647,13.086
		c0,7.692-1.937,14.553-5.752,20.389c-2.241,3.427-5.13,6.309-8.638,8.623c5.083,2.444,9.3,5.886,12.594,10.293
		c5.041,6.752,7.598,15.06,7.598,24.694C253.602,292.413,251.921,299.588,248.607,305.625z M363,270.7h-39.8v39.8h-21.399v-39.8H262
		v-21.4h39.801v-39.8H323.2v39.8H363V270.7z"/>
</g>
</svg>
