<?xml version="1.0" encoding="utf-8"?>
<!-- Generator: Adobe Illustrator 16.0.0, SVG Export Plug-In . SVG Version: 6.00 Build 0)  -->
<!DOCTYPE svg PUBLIC "-//W3C//DTD SVG 1.1//EN" "http://www.w3.org/Graphics/SVG/1.1/DTD/svg11.dtd">
<svg version="1.1" xmlns="http://www.w3.org/2000/svg" xmlns:xlink="http://www.w3.org/1999/xlink" x="0px" y="0px" width="416px"
	 height="512px" viewBox="0 0 416 512" enable-background="new 0 0 416 512" xml:space="preserve">
<g id="Layer_2">
	<path fill="none" stroke="#000000" stroke-width="18" stroke-miterlimit="10" d="M406.5,352.5c0,22.092-17.908,40-40,40H50
		c-22.091,0-40-17.908-40-40v-194c0-22.091,17.909-40,40-40h316.5c22.092,0,40,17.909,40,40V352.5z"/>
</g>
<g id="Layer_3">
	<g>
		<polygon points="147.168,331.5 160.168,269.9 110.544,269.9 97.544,331.5 57.972,331.5 89.653,180.7 129.436,180.7 117.835,235.5 
			167.458,235.5 179.058,180.7 218.835,180.7 186.943,331.5 		"/>
		<path d="M124.5,184.7l-11.6,54.8h57.8l11.6-54.8H213.9l-30.2,142.8h-31.6l13-61.6h-57.8l-13,61.6H62.9l30-142.8H124.5z"/>
		<path d="M206.172,331.5l31.681-150.8h54.847c21.101,0,37.304,5.25,48.161,15.605c10.908,10.41,16.438,25.212,16.438,43.994
			c0,12.759-1.815,24.816-5.395,35.836c-3.622,11.14-9.106,20.932-16.302,29.106c-7.235,8.217-16.398,14.723-27.236,19.338
			c-10.785,4.592-23.458,6.92-37.667,6.92H206.172z M272.1,297.1c7.369,0,13.96-1.351,19.589-4.015
			c5.639-2.666,10.426-6.346,14.23-10.938c3.861-4.656,6.85-10.141,8.882-16.301c2.057-6.231,3.099-13.009,3.099-20.146
			c0-4.815-0.525-9.209-1.562-13.06c-0.978-3.619-2.567-6.781-4.724-9.395c-2.135-2.583-4.811-4.535-8.177-5.963
			c-3.42-1.447-7.706-2.182-12.737-2.182h-20.363l-17.493,82H272.1z"/>
		<path d="M292.699,184.7c20.131,0,35.266,4.834,45.4,14.5c10.131,9.668,15.199,23.369,15.199,41.1
			c0,12.4-1.734,23.935-5.199,34.601c-3.469,10.668-8.635,19.899-15.5,27.699c-6.869,7.801-15.469,13.9-25.801,18.301
			c-10.334,4.399-22.368,6.6-36.1,6.6h-59.6l30-142.8H292.699z M272.1,301.1c8,0,15.1-1.465,21.3-4.399
			c6.2-2.932,11.399-6.932,15.6-12c4.2-5.065,7.4-10.932,9.601-17.601c2.199-6.665,3.3-13.8,3.3-21.399c0-5.2-0.569-9.9-1.7-14.1
			c-1.135-4.2-2.969-7.832-5.5-10.9c-2.534-3.066-5.769-5.432-9.7-7.1c-3.935-1.666-8.7-2.5-14.3-2.5h-23.6l-19.2,90H272.1z"/>
	</g>
</g>
</svg>
