<?xml version="1.0" encoding="utf-8"?>
<!-- Generator: Adobe Illustrator 16.0.0, SVG Export Plug-In . SVG Version: 6.00 Build 0)  -->
<!DOCTYPE svg PUBLIC "-//W3C//DTD SVG 1.1//EN" "http://www.w3.org/Graphics/SVG/1.1/DTD/svg11.dtd">
<svg version="1.1" id="Layer_1" xmlns="http://www.w3.org/2000/svg" xmlns:xlink="http://www.w3.org/1999/xlink" x="0px" y="0px"
	 width="416.074px" height="512px" viewBox="47.963 0 416.074 512" enable-background="new 47.963 0 416.074 512"
	 xml:space="preserve">
<g>
	<g>
		<path fill="#010101" d="M403.1,108.9c-81.199-81.2-212.899-81.2-294.2,0c-81.3,81.2-81.2,212.9,0,294.2
			c81.2,81.2,212.9,81.2,294.2,0C484.4,321.9,484.3,190.1,403.1,108.9z M390.8,390.8c-74.3,74.3-195.3,74.3-269.6,0
			c-74.3-74.3-74.3-195.3,0-269.6c74.3-74.3,195.3-74.3,269.6,0C465.2,195.5,465.2,316.5,390.8,390.8z"/>
	</g>
	<polygon fill="#010101" points="340.2,160 255.8,244.2 171.8,160.4 160,172.2 244,256 160,339.8 171.8,351.6 255.8,267.8 
		340.2,352 352,340.2 267.6,256 352,171.8 	"/>
</g>
</svg>
