<?xml version="1.0" encoding="utf-8"?>
<!-- Generator: Adobe Illustrator 16.0.0, SVG Export Plug-In . SVG Version: 6.00 Build 0)  -->
<!DOCTYPE svg PUBLIC "-//W3C//DTD SVG 1.1//EN" "http://www.w3.org/Graphics/SVG/1.1/DTD/svg11.dtd">
<svg version="1.1" id="Layer_1" xmlns="http://www.w3.org/2000/svg" xmlns:xlink="http://www.w3.org/1999/xlink" x="0px" y="0px"
	 width="416px" height="512px" viewBox="48 0 416 512" enable-background="new 48 0 416 512" xml:space="preserve">
<path d="M256,48C141.1,48,48,141.1,48,256c0,114.9,93.1,208,208,208c114.9,0,208-93.1,208-208C464,141.1,370.9,48,256,48z
	 M256,446.7c-58.6,0-111.1-26.601-146.1-68.3c17.8-7.7,62.2-23.7,90.3-31.9c2.2-0.7,2.6-0.8,2.6-10.7c0-10.6-1.2-18.1-3.8-23.6
	c-3.5-7.5-7.7-20.2-9.2-31.601c-4.2-4.899-9.9-14.5-13.6-32.899c-3.2-16.2-1.7-22.1,0.4-27.6c0.2-0.6,0.5-1.2,0.6-1.8
	c0.8-3.7-0.3-23.5-3.1-38.8c-1.9-10.5,0.5-32.8,15-51.3c9.1-11.7,26.6-26,58-28h17.5c31.9,2,49.4,16.3,58.5,28
	c14.5,18.5,16.9,40.8,14.9,51.3c-2.8,15.3-3.9,35-3.1,38.8c0.1,0.6,0.399,1.2,0.6,1.7c2.1,5.5,3.7,11.4,0.4,27.6
	c-3.7,18.4-9.4,28-13.601,32.9c-1.5,11.4-5.7,24-9.2,31.6c-3.3,6.9-6.6,15.101-6.6,23.301c0,9.899,0.4,10,2.7,10.699
	c26.7,7.9,72.7,23.801,93,32.101C367.2,420,314.7,446.7,256,446.7z"/>
</svg>
