<?xml version="1.0" encoding="utf-8"?>
<!-- Generator: Adobe Illustrator 16.0.0, SVG Export Plug-In . SVG Version: 6.00 Build 0)  -->
<!DOCTYPE svg PUBLIC "-//W3C//DTD SVG 1.1//EN" "http://www.w3.org/Graphics/SVG/1.1/DTD/svg11.dtd">
<svg version="1.1" id="Layer_1" xmlns="http://www.w3.org/2000/svg" xmlns:xlink="http://www.w3.org/1999/xlink" x="0px" y="0px"
	 width="416px" height="512px" viewBox="0 0 416 512" enable-background="new 0 0 416 512" xml:space="preserve">
<g id="Layer_2">
	<path d="M366.5,401.5H50c-27.019,0-49-21.981-49-49v-194c0-27.019,21.981-49,49-49h316.5c27.019,0,49,21.981,49,49v194
		C415.5,379.519,393.519,401.5,366.5,401.5z M50,127.5c-17.093,0-31,13.907-31,31v194c0,17.094,13.907,31,31,31h316.5
		c17.094,0,31-13.906,31-31v-194c0-17.093-13.906-31-31-31H50z"/>
</g>
<g id="Layer_3">
	<g>
		<polygon stroke="#000000" stroke-miterlimit="10" points="147.168,331.5 160.168,269.9 110.544,269.9 97.544,331.5 57.972,331.5 
			89.653,180.7 129.436,180.7 117.835,235.5 167.458,235.5 179.058,180.7 218.835,180.7 186.943,331.5 		"/>
		<path stroke="#000000" stroke-miterlimit="10" d="M124.5,184.7l-11.6,54.8h57.8l11.6-54.8H213.9l-30.2,142.8h-31.6l13-61.6h-57.8
			l-13,61.6H62.9l30-142.8H124.5z"/>
		<path stroke="#000000" stroke-miterlimit="10" d="M206.172,331.5l31.682-150.8H292.7c21.101,0,37.304,5.25,48.161,15.605
			c10.907,10.41,16.438,25.212,16.438,43.994c0,12.759-1.814,24.816-5.395,35.836c-3.622,11.141-9.106,20.932-16.303,29.106
			c-7.234,8.217-16.397,14.723-27.235,19.338c-10.785,4.592-23.458,6.92-37.667,6.92L206.172,331.5L206.172,331.5z M272.1,297.1
			c7.369,0,13.961-1.351,19.59-4.015c5.639-2.666,10.426-6.347,14.229-10.938c3.861-4.655,6.85-10.141,8.882-16.301
			c2.058-6.23,3.1-13.009,3.1-20.146c0-4.815-0.525-9.209-1.562-13.06c-0.978-3.619-2.566-6.781-4.724-9.395
			c-2.136-2.583-4.812-4.535-8.178-5.963c-3.42-1.447-7.706-2.182-12.736-2.182h-20.363l-17.493,82H272.1z"/>
		<path stroke="#000000" stroke-miterlimit="10" d="M292.699,184.7c20.131,0,35.266,4.834,45.399,14.5
			c10.132,9.668,15.199,23.369,15.199,41.1c0,12.4-1.733,23.935-5.199,34.601c-3.469,10.668-8.635,19.899-15.5,27.699
			c-6.868,7.801-15.469,13.9-25.801,18.301c-10.334,4.399-22.368,6.601-36.1,6.601h-59.601l30-142.8L292.699,184.7L292.699,184.7z
			 M272.1,301.1c8,0,15.101-1.465,21.301-4.398c6.199-2.932,11.398-6.932,15.6-12c4.2-5.064,7.4-10.932,9.601-17.602
			c2.199-6.664,3.301-13.8,3.301-21.398c0-5.2-0.569-9.9-1.7-14.1c-1.135-4.2-2.969-7.832-5.5-10.9c-2.534-3.066-5.77-5.432-9.7-7.1
			c-3.935-1.666-8.7-2.5-14.3-2.5h-23.6l-19.201,90H272.1V301.1z"/>
	</g>
</g>
</svg>
