<?xml version="1.0" encoding="utf-8"?>
<!-- Generator: Adobe Illustrator 16.0.0, SVG Export Plug-In . SVG Version: 6.00 Build 0)  -->
<!DOCTYPE svg PUBLIC "-//W3C//DTD SVG 1.1//EN" "http://www.w3.org/Graphics/SVG/1.1/DTD/svg11.dtd">
<svg version="1.1" id="Layer_1" xmlns="http://www.w3.org/2000/svg" xmlns:xlink="http://www.w3.org/1999/xlink" x="0px" y="0px"
	 width="416px" height="512px" viewBox="0 0 416 512" enable-background="new 0 0 416 512" xml:space="preserve">
<g id="Layer_2">
	<path d="M366.5,401.5H50c-27.019,0-49-21.981-49-49v-194c0-27.019,21.981-49,49-49h316.5c27.019,0,49,21.981,49,49v194
		C415.5,379.519,393.519,401.5,366.5,401.5z M50,127.5c-17.093,0-31,13.907-31,31v194c0,17.094,13.907,31,31,31h316.5
		c17.094,0,31-13.906,31-31v-194c0-17.093-13.906-31-31-31H50z"/>
</g>
<g>
	<path fill="none" d="M314.801,265.846c2.058-6.23,3.1-13.009,3.1-20.146c0-4.815-0.525-9.209-1.562-13.06
		c-0.978-3.619-2.566-6.781-4.724-9.395c-2.136-2.583-4.812-4.535-8.178-5.963c-3.42-1.447-7.706-2.182-12.736-2.182h-20.363
		l-17.493,82H272.1c7.369,0,13.961-1.351,19.59-4.015c5.639-2.666,10.426-6.347,14.229-10.938
		C309.78,277.491,312.769,272.006,314.801,265.846z"/>
	<polygon points="179.058,180.7 167.458,235.5 117.835,235.5 129.436,180.7 89.653,180.7 57.972,331.5 97.544,331.5 110.544,269.9 
		160.168,269.9 147.168,331.5 186.943,331.5 218.835,180.7 	"/>
	<polygon points="206.172,331.5 206.172,331.499 206.172,331.499 	"/>
	<path d="M340.861,196.305C330.004,185.95,313.801,180.7,292.7,180.7h-54.847l-31.682,150.799h64.527
		c14.209,0,26.882-2.328,37.667-6.92c10.838-4.615,20.001-11.121,27.235-19.338c7.196-8.175,12.681-17.966,16.303-29.106
		c3.58-11.02,5.395-23.077,5.395-35.836C357.299,221.517,351.769,206.715,340.861,196.305z M291.689,293.085
		c-5.629,2.664-12.221,4.015-19.59,4.015h-19.256l17.493-82H290.7c5.03,0,9.316,0.735,12.736,2.182
		c3.366,1.428,6.042,3.38,8.178,5.963c2.157,2.614,3.746,5.776,4.724,9.395c1.037,3.851,1.562,8.245,1.562,13.06
		c0,7.137-1.042,13.915-3.1,20.146c-2.032,6.16-5.021,11.646-8.882,16.301C302.115,286.738,297.328,290.419,291.689,293.085z"/>
</g>
</svg>
