<?xml version="1.0" encoding="utf-8"?>
<!-- Generator: Adobe Illustrator 16.0.0, SVG Export Plug-In . SVG Version: 6.00 Build 0)  -->
<!DOCTYPE svg PUBLIC "-//W3C//DTD SVG 1.1//EN" "http://www.w3.org/Graphics/SVG/1.1/DTD/svg11.dtd">
<svg version="1.1" id="Layer_1" xmlns="http://www.w3.org/2000/svg" xmlns:xlink="http://www.w3.org/1999/xlink" x="0px" y="0px"
	 width="384px" height="512px" viewBox="64.3 0 384 512" enable-background="new 64.3 0 384 512" xml:space="preserve">
<path d="M448.3,424.7L335,311.3c20.8-26,33.3-59.1,33.3-95.1c0-84.1-68.1-152.2-152-152.2c-84,0-152,68.2-152,152.2
	s68.1,152.2,152,152.2c36.2,0,69.4-12.7,95.5-33.801L425,448L448.3,424.7z M120.1,312.6C94.4,286.9,80.3,252.7,80.3,216.3
	c0-36.4,14.2-70.6,39.8-96.3s59.9-40,96.2-40c36.3,0,70.5,14.2,96.2,39.9c25.7,25.7,39.8,59.9,39.8,96.3c0,36.4-14.2,70.6-39.8,96.3
	c-25.7,25.7-59.9,39.9-96.2,39.9C180,352.5,145.8,338.3,120.1,312.6z"/>
</svg>
