<?xml version="1.0" encoding="utf-8"?>
<!-- Generator: Adobe Illustrator 16.0.0, SVG Export Plug-In . SVG Version: 6.00 Build 0)  -->
<!DOCTYPE svg PUBLIC "-//W3C//DTD SVG 1.1//EN" "http://www.w3.org/Graphics/SVG/1.1/DTD/svg11.dtd">
<svg version="1.1" id="Layer_1" xmlns="http://www.w3.org/2000/svg" xmlns:xlink="http://www.w3.org/1999/xlink" x="0px" y="0px"
	 width="416px" height="512px" viewBox="0 0 416 512" enable-background="new 0 0 416 512" xml:space="preserve">
<g>
	<path d="M366.5,118.5H50c-22.091,0-40,17.909-40,40v194c0,22.092,17.909,40,40,40h316.5c22.092,0,40-17.908,40-40v-194
		C406.5,136.409,388.592,118.5,366.5,118.5z M147.168,331.5l13-61.6h-49.624l-13,61.6H57.972l31.681-150.8h39.783l-11.601,54.8
		h49.623l11.6-54.8h39.777l-31.892,150.8H147.168z M351.904,276.135c-3.622,11.141-9.106,20.932-16.303,29.106
		c-7.234,8.217-16.397,14.723-27.235,19.338c-10.785,4.592-23.458,6.92-37.667,6.92h-64.527v0.001v-0.001l0,0L237.854,180.7H292.7
		c21.101,0,37.304,5.25,48.161,15.605c10.907,10.41,16.438,25.212,16.438,43.994C357.299,253.058,355.484,265.115,351.904,276.135z"
		/>
	<path d="M311.614,223.245c-2.136-2.583-4.812-4.535-8.178-5.963c-3.42-1.447-7.706-2.182-12.736-2.182h-20.363l-17.493,82H272.1
		c7.369,0,13.961-1.351,19.59-4.015c5.639-2.666,10.426-6.347,14.229-10.938c3.861-4.655,6.85-10.141,8.882-16.301
		c2.058-6.23,3.1-13.009,3.1-20.146c0-4.815-0.525-9.209-1.562-13.06C315.36,229.021,313.771,225.859,311.614,223.245z"/>
</g>
<path fill="none" stroke="#000000" stroke-width="18" stroke-miterlimit="10" d="M406.5,352.5c0,22.092-17.908,40-40,40H50
	c-22.091,0-40-17.908-40-40v-194c0-22.091,17.909-40,40-40h316.5c22.092,0,40,17.909,40,40V352.5z"/>
</svg>
