<?xml version="1.0" encoding="utf-8"?>
<!-- Generator: Adobe Illustrator 16.0.0, SVG Export Plug-In . SVG Version: 6.00 Build 0)  -->
<!DOCTYPE svg PUBLIC "-//W3C//DTD SVG 1.1//EN" "http://www.w3.org/Graphics/SVG/1.1/DTD/svg11.dtd">
<svg version="1.1" id="Layer_1" xmlns="http://www.w3.org/2000/svg" xmlns:xlink="http://www.w3.org/1999/xlink" x="0px" y="0px"
	 width="256px" height="512px" viewBox="128.1 0 256 512" enable-background="new 128.1 0 256 512" xml:space="preserve">
<g>
	<path d="M368,112c-11,1.4-24.9,3.5-39.7,3.5c-23.1,0-44-5.7-65.2-10.2c-21.5-4.6-43.7-9.3-67.2-9.3c-46.9,0-62.8,10.1-64.4,11.2
		l-3.4,2.4v2.6v161.7V416h16V272.7c6-2.5,21.8-6.9,51.9-6.9c21.8,0,42.2,8.3,63.9,13c22,4.7,44.8,9.601,69.5,9.601
		c14.699,0,27.699-2,38.699-3.301c6-0.699,11.301-1.399,16-2.199V126v-16.5C379.4,110.4,374,111.2,368,112z M368,269
		c-11,1.4-23.9,3.5-38.7,3.5c-23.1,0-45-4.7-66.2-9.2c-21.5-4.6-43.6-13.3-67.1-13.3c-25.7,0-41.9,3-51.9,6V118.7
		c6-2.5,21.9-6.8,51.9-6.8c21.8,0,42.2,4.3,63.9,9c22,4.7,43.8,10.6,68.5,10.6c14.699,0,28.699-2,39.699-3.3L368,269L368,269z"/>
</g>
</svg>
