<?xml version="1.0" encoding="utf-8"?>
<!-- Generator: Adobe Illustrator 16.0.0, SVG Export Plug-In . SVG Version: 6.00 Build 0)  -->
<!DOCTYPE svg PUBLIC "-//W3C//DTD SVG 1.1//EN" "http://www.w3.org/Graphics/SVG/1.1/DTD/svg11.dtd">
<svg version="1.1" id="Layer_1" xmlns="http://www.w3.org/2000/svg" xmlns:xlink="http://www.w3.org/1999/xlink" x="0px" y="0px"
	 width="416px" height="512px" viewBox="0 0 416 512" enable-background="new 0 0 416 512" xml:space="preserve">
<g>
	<g>
		<circle cx="203.5" cy="172" r="20"/>
		<polygon points="224,344 224,216 176,216 176,224 192,224 192,344 176,344 176,352 240,352 240,344 		"/>
	</g>
	<g>
		<path d="M208,48C93.1,48,0,141.1,0,256c0,114.9,93.1,208,208,208c114.9,0,208-93.1,208-208C416,141.1,322.9,48,208,48z M208,446.7
			c-105.1,0-190.7-85.5-190.7-190.7c0-105.1,85.5-190.7,190.7-190.7c105.1,0,190.7,85.5,190.7,190.7
			C398.7,361.1,313.1,446.7,208,446.7z"/>
	</g>
</g>
</svg>
