<?xml version="1.0" encoding="utf-8"?>
<!-- Generator: Adobe Illustrator 16.0.0, SVG Export Plug-In . SVG Version: 6.00 Build 0)  -->
<!DOCTYPE svg PUBLIC "-//W3C//DTD SVG 1.1//EN" "http://www.w3.org/Graphics/SVG/1.1/DTD/svg11.dtd">
<svg version="1.1" id="Layer_1" xmlns="http://www.w3.org/2000/svg" xmlns:xlink="http://www.w3.org/1999/xlink" x="0px" y="0px"
	 width="416px" height="512px" viewBox="0 0 416 512" enable-background="new 0 0 416 512" xml:space="preserve">
<g>
	<path d="M208,48C93.1,48,0,141.1,0,256c0,114.9,93.1,208,208,208c114.9,0,208-93.1,208-208C416,141.1,322.9,48,208,48z M203.5,152
		c11.1,0,20,9,20,20s-9,20-20,20s-20-9-20-20S192.4,152,203.5,152z M240,352h-64v-8h16V224h-16v-8h48v128h16V352z"/>
</g>
</svg>
