<?xml version="1.0" encoding="utf-8"?>
<!-- Generator: Adobe Illustrator 16.0.0, SVG Export Plug-In . SVG Version: 6.00 Build 0)  -->
<!DOCTYPE svg PUBLIC "-//W3C//DTD SVG 1.1//EN" "http://www.w3.org/Graphics/SVG/1.1/DTD/svg11.dtd">
<svg version="1.1" id="Layer_1" xmlns="http://www.w3.org/2000/svg" xmlns:xlink="http://www.w3.org/1999/xlink" x="0px" y="0px"
	 width="416px" height="512px" viewBox="0 0 416 512" enable-background="new 0 0 416 512" xml:space="preserve">
<g>
	<path d="M291.689,293.085c5.64-2.666,10.427-6.347,14.229-10.938c3.861-4.654,6.85-10.141,8.882-16.301
		c2.059-6.229,3.101-13.009,3.101-20.146c0-4.815-0.525-9.209-1.562-13.06c-0.979-3.619-2.567-6.781-4.725-9.395
		c-2.136-2.583-4.812-4.535-8.179-5.963c-3.42-1.447-7.705-2.182-12.735-2.182h-20.363l-17.493,82H272.1
		C279.469,297.1,286.061,295.749,291.689,293.085z"/>
	<path d="M366.5,109.5H50c-27.019,0-49,21.981-49,49v194c0,27.019,21.981,49,49,49h316.5c27.019,0,49-21.981,49-49v-194
		C415.5,131.481,393.519,109.5,366.5,109.5z M110.544,269.9l-13,61.6H57.972l31.681-150.8h39.783l-11.601,54.8h49.623l11.6-54.8
		h39.777l-31.892,150.8h-39.775l13-61.6H110.544z M237.854,180.7H292.7c21.101,0,37.304,5.25,48.161,15.605
		c10.906,10.41,16.438,25.212,16.438,43.994c0,12.759-1.814,24.816-5.395,35.836c-3.622,11.141-9.106,20.932-16.304,29.106
		c-7.233,8.217-16.396,14.723-27.234,19.338c-10.785,4.592-23.458,6.92-37.667,6.92h-64.527L237.854,180.7z"/>
</g>
</svg>
