<?xml version="1.0" encoding="utf-8"?>
<!-- Generator: Adobe Illustrator 16.0.0, SVG Export Plug-In . SVG Version: 6.00 Build 0)  -->
<!DOCTYPE svg PUBLIC "-//W3C//DTD SVG 1.1//EN" "http://www.w3.org/Graphics/SVG/1.1/DTD/svg11.dtd">
<svg version="1.1" id="Layer_1" xmlns="http://www.w3.org/2000/svg" xmlns:xlink="http://www.w3.org/1999/xlink" x="0px" y="0px"
	 width="416px" height="512px" viewBox="48 0 416 512" enable-background="new 48 0 416 512" xml:space="preserve">
<path d="M364.1,256c0,60-48.5,108.2-108.1,108.2c-59.6,0-108.1-48.5-108.1-108.2c0-59.6,48.5-108.1,108.1-108.1v55.8l96-55.7l-96-64
	v44c-70.7,0-128,57.4-128,128.1c0,70.8,57.3,128.1,128,128.1S384,327.1,384,256.1h-19.9V256z"/>
<g>
	<g>
		<path d="M256,48C141.1,48,48,141.1,48,256c0,114.9,93.1,208,208,208c114.9,0,208-93.1,208-208C464,141.1,370.9,48,256,48z
			 M256,446.7c-105.1,0-190.7-85.5-190.7-190.7c0-105.1,85.5-190.7,190.7-190.7c105.1,0,190.7,85.5,190.7,190.7
			C446.7,361.1,361.1,446.7,256,446.7z"/>
	</g>
</g>
</svg>
