<?xml version="1.0" encoding="utf-8"?>
<!-- Generator: Adobe Illustrator 16.0.0, SVG Export Plug-In . SVG Version: 6.00 Build 0)  -->
<!DOCTYPE svg PUBLIC "-//W3C//DTD SVG 1.1//EN" "http://www.w3.org/Graphics/SVG/1.1/DTD/svg11.dtd">
<svg version="1.1" id="Layer_1" xmlns="http://www.w3.org/2000/svg" xmlns:xlink="http://www.w3.org/1999/xlink" x="0px" y="0px"
	 width="416px" height="512px" viewBox="48 0 416 512" enable-background="new 48 0 416 512" xml:space="preserve">
<path d="M256,48C141.1,48,48,141.1,48,256c0,114.9,93.1,208,208,208c114.9,0,208-93.1,208-208C464,141.1,370.9,48,256,48z M256,65.3
	c105.1,0,190.7,85.5,190.7,190.7c0,46.5-16.7,89.1-44.4,122.2C382.3,370,336.4,354.1,309.4,346.1c-2.4-0.699-2.7-0.899-2.7-10.699
	c0-8.101,3.3-16.301,6.6-23.301c3.601-7.5,7.7-20.199,9.2-31.6c4.2-4.9,10-14.5,13.6-32.9c3.2-16.2,1.7-22.1-0.399-27.6
	c-0.2-0.6-0.5-1.2-0.601-1.7c-0.8-3.8,0.301-23.5,3.101-38.8c1.899-10.5-0.5-32.8-14.9-51.3c-9.1-11.7-26.6-26-58.5-28h-17.5
	c-31.4,2-48.8,16.3-58,28c-14.5,18.5-16.9,40.8-15,51.3c2.8,15.3,3.9,35,3.1,38.8c-0.2,0.7-0.4,1.2-0.6,1.8
	c-2.1,5.5-3.7,11.4-0.4,27.6c3.7,18.399,9.4,28,13.6,32.899c1.5,11.4,5.7,24,9.2,31.601c2.6,5.5,3.8,13,3.8,23.6
	c0,9.9-0.4,10-2.6,10.7c-28.1,8.3-72.6,24.3-90.4,32C82.1,345.3,65.3,302.6,65.3,256C65.3,150.9,150.9,65.3,256,65.3z"/>
</svg>
