<?xml version="1.0" encoding="utf-8"?>
<!-- Generator: Adobe Illustrator 24.1.0, SVG Export Plug-In . SVG Version: 6.00 Build 0)  -->
<svg version="1.1" id="Layer_2_1_" xmlns="http://www.w3.org/2000/svg" xmlns:xlink="http://www.w3.org/1999/xlink" x="0px" y="0px"
	 viewBox="0 0 404 500" style="enable-background:new 0 0 404 500;" xml:space="preserve">
<g>
	<path d="M26.63,156.16c-1.91,0-3.75,1.05-4.68,2.86c-10.08,19.7-16.79,40.75-19.92,62.57c-3.25,22.57-2.59,45.46,1.96,68.02
		c0.07,0.35,0.18,0.69,0.31,1.01c-0.07-0.34-0.14-0.69-0.21-1.03c-0.57-2.85,1.27-5.62,4.11-6.2c0.35-0.07,0.7-0.11,1.05-0.11
		c2.11,0,4.03,1.28,4.84,3.23c-4.13-21.05-4.69-42.39-1.66-63.44c2.97-20.66,9.32-40.61,18.88-59.27c1.32-2.59,0.3-5.75-2.28-7.08
		C28.26,156.35,27.44,156.16,26.63,156.16"/>
	<path d="M200.4,50c-13.27,0-26.64,1.34-39.96,4.02c-49.12,9.91-92.43,37.65-121.94,78.11c-1.71,2.35-1.2,5.64,1.15,7.35
		c0.93,0.68,2.02,1.01,3.09,1.01c1.62,0,3.22-0.75,4.25-2.16c27.96-38.33,68.99-64.62,115.52-74c12.62-2.55,25.28-3.81,37.86-3.81
		c28.58,0,56.72,6.53,82.9,19.39c0.75,0.37,1.53,0.54,2.31,0.54c1.94,0,3.81-1.08,4.72-2.94c1.28-2.61,0.2-5.76-2.4-7.04
		C260.27,56.89,230.57,50,200.4,50"/>
	<path d="M311.79,85.43c-1.65,0-3.28,0.78-4.31,2.24c-1.67,2.38-1.09,5.66,1.28,7.33c39.91,28.02,67.2,69.8,76.84,117.64
		c0.07,0.35,0.18,0.69,0.31,1.01c-0.07-0.34-0.14-0.69-0.2-1.03c-0.57-2.85,1.27-5.62,4.11-6.2c0.35-0.07,0.7-0.11,1.05-0.11
		c2.1,0,4,1.26,4.82,3.18c-10.36-50.05-39.06-93.74-80.89-123.11C313.89,85.74,312.84,85.43,311.79,85.43"/>
	<path d="M390.88,206.31c-0.35,0-0.7,0.03-1.05,0.11c-2.84,0.57-4.69,3.35-4.11,6.2c0.07,0.34,0.14,0.69,0.2,1.03
		c2.6,13.27,3.79,26.81,3.53,40.26c-0.05,2.9,2.25,5.3,5.16,5.36h0.1c2.86,0,5.2-2.29,5.25-5.16c0.28-14.56-1.05-29.22-3.94-43.57
		c-0.07-0.36-0.18-0.71-0.32-1.04C394.88,207.57,392.97,206.31,390.88,206.31"/>
	<path d="M9.25,283.3c-0.35,0-0.7,0.03-1.05,0.11c-2.85,0.57-4.69,3.35-4.11,6.2c0.07,0.34,0.14,0.68,0.21,1.03
		c0.51,2.45,1.08,4.97,1.7,7.5c0.59,2.4,2.74,4,5.1,4c0.42,0,0.84-0.05,1.26-0.15c2.82-0.69,4.54-3.54,3.85-6.36
		c-0.67-2.74-1.29-5.46-1.82-8.09c-0.07-0.34-0.17-0.67-0.3-0.98C13.28,284.58,11.36,283.3,9.25,283.3"/>
	<path d="M200,244.81c-0.35,0-0.7,0.03-1.05,0.11c-2.85,0.57-4.69,3.35-4.11,6.19c6.72,33.31,5.56,66.68-3.43,99.2
		c-8.58,31.01-24.37,60.22-45.66,84.47c-1.92,2.18-1.7,5.5,0.48,7.42c1,0.88,2.24,1.31,3.47,1.31c1.46,0,2.91-0.6,3.95-1.79
		c22.34-25.43,38.9-56.07,47.9-88.61c9.44-34.12,10.65-69.14,3.61-104.08C204.65,246.54,202.46,244.81,200,244.81"/>
	<path d="M166.75,358.83c-2.1,0-4.09,1.27-4.9,3.35c-9.33,23.92-23.16,45.38-41.09,63.77c-2.03,2.08-1.99,5.41,0.09,7.44
		c1.02,1,2.35,1.49,3.67,1.49c1.37,0,2.73-0.53,3.76-1.59c18.92-19.41,33.51-42.05,43.36-67.29c1.06-2.71-0.28-5.75-2.99-6.81
		C168.03,358.95,167.39,358.83,166.75,358.83"/>
	<path d="M200.02,220.33c-1.97,0-3.96,0.2-5.94,0.6c-16.06,3.24-26.5,18.95-23.26,35.02l1.02,5.06l0.11-0.02
		c4.19,24.06,3.74,48.28-1.35,72.06c-0.61,2.84,1.2,5.63,4.04,6.24c0.37,0.08,0.74,0.12,1.1,0.12c2.43,0,4.61-1.69,5.14-4.16
		c5.75-26.87,5.9-54.26,0.43-81.41l-0.52-2.57c-0.59-9.43,5.86-18.12,15.37-20.03c1.28-0.26,2.56-0.39,3.84-0.39
		c3.74,0,7.4,1.1,10.58,3.22c3.78,2.51,6.49,6.19,7.77,10.48l0.35,1.75c13.77,68.29-2.96,138.98-45.9,193.96
		c-1.79,2.29-1.38,5.59,0.91,7.38c0.96,0.75,2.1,1.12,3.23,1.12c1.56,0,3.11-0.69,4.15-2.02c43.87-56.16,61.53-128.04,48.8-197.91
		l0.12-0.04l-0.93-4.59c-1.57-7.78-6.08-14.49-12.69-18.89C211.47,222.03,205.8,220.33,200.02,220.33"/>
	<path d="M154.16,265.4c-0.24,0-0.47,0.02-0.71,0.05c-2.88,0.39-4.89,3.04-4.5,5.92c7.16,52.88-11.91,106.3-50.99,142.88
		c-2.12,1.98-2.23,5.31-0.25,7.43c1.04,1.11,2.44,1.67,3.84,1.67c1.29,0,2.58-0.47,3.59-1.42c41.57-38.91,61.84-95.72,54.23-151.97
		C159,267.32,156.75,265.4,154.16,265.4"/>
	<path d="M200.07,196c-3.59,0-7.2,0.36-10.79,1.08c-21.23,4.28-37.81,20.75-42.23,41.96c-0.59,2.84,1.23,5.63,4.07,6.22
		c0.36,0.08,0.73,0.11,1.08,0.11c2.44,0,4.62-1.71,5.14-4.19c3.56-17.08,16.92-30.35,34.02-33.8c2.9-0.58,5.8-0.87,8.69-0.87
		c8.47,0,16.77,2.49,23.99,7.29c9.11,6.05,15.48,15.1,18.12,25.64l0.41,2.03c3.42,16.99,5.18,34.3,5.22,51.44
		c0.01,2.9,2.36,5.25,5.25,5.25h0.02c2.9-0.01,5.25-2.37,5.24-5.27c-0.04-16.41-1.59-32.96-4.61-49.27l0.08-0.03l-0.85-4.21
		c-2.85-14.15-11.04-26.35-23.06-34.34C220.89,199.09,210.59,196,200.07,196"/>
	<path d="M251.32,318.54c-2.63,0-4.91,1.98-5.21,4.66c-4.82,42.25-20.12,83.25-44.28,118.57c-1.64,2.4-1.03,5.67,1.37,7.31
		c0.91,0.62,1.94,0.92,2.96,0.92c1.68,0,3.33-0.8,4.34-2.29c25.12-36.73,41.04-79.37,46.04-123.32c0.33-2.88-1.74-5.49-4.63-5.82
		C251.72,318.55,251.52,318.54,251.32,318.54"/>
	<path d="M200.05,171.68c-5.21,0-10.43,0.52-15.58,1.56c-20.52,4.14-38.19,16.02-49.77,33.46s-15.68,38.35-11.54,58.87l1.01,5
		l0.04-0.01c3.84,23.35,1.76,47.28-6.07,69.53c-8.15,23.17-22.27,43.91-40.82,59.98c-2.19,1.9-2.43,5.22-0.53,7.42
		c1.04,1.2,2.5,1.82,3.98,1.82c1.22,0,2.44-0.42,3.44-1.28c19.93-17.27,35.1-39.55,43.85-64.44c9.02-25.63,10.94-53.34,5.54-80.12
		l-0.86-4.25c-2.25-16.38,1.49-32.81,10.72-46.69c10.03-15.1,25.33-25.38,43.09-28.97c4.46-0.9,8.98-1.35,13.5-1.35
		c1.74,0,3.48,0.07,5.22,0.2c0.14,0.01,0.28,0.02,0.41,0.02c2.72,0,5.02-2.09,5.24-4.85c0.22-2.9-1.94-5.43-4.83-5.65
		C204.07,171.76,202.06,171.68,200.05,171.68"/>
	<path d="M251.79,399.42c-5.34,13.43-11.72,26.51-19.12,39.13c-1.47,2.5-0.63,5.73,1.87,7.2c0.84,0.49,1.75,0.72,2.65,0.72
		c1.8,0,3.56-0.93,4.54-2.6c5.72-9.75,10.85-19.78,15.39-30.01c-0.56-1.17-1.09-2.35-1.6-3.55
		C254.04,406.8,252.79,403.16,251.79,399.42 M235.52,180.93c-1.84,0-3.63,0.97-4.59,2.7c-1.41,2.54-0.51,5.74,2.03,7.15
		c16.68,9.31,28.6,25.12,33,43.62l0.46,2.28c5.72,28.36,7.08,57.14,4.25,85.41c3.46-3.8,7.27-7.27,11.38-10.37
		c1.48-24.12,0.02-48.5-4.46-72.64l0.07-0.03l-0.9-4.47c-4.54-22.49-18.64-41.8-38.68-52.99
		C237.26,181.14,236.38,180.93,235.52,180.93"/>
	<path d="M98.79,332.13c-2.11,0-4.09,1.27-4.9,3.36c-7.29,18.78-19.38,35.45-34.94,48.21c-2.25,1.84-2.58,5.15-0.74,7.4
		c1.04,1.27,2.55,1.93,4.07,1.93c1.17,0,2.35-0.39,3.33-1.19c16.96-13.9,30.13-32.07,38.08-52.54c1.05-2.71-0.29-5.75-3-6.81
		C100.07,332.25,99.42,332.13,98.79,332.13"/>
	<path d="M200.17,147.34c-6.81,0-13.68,0.68-20.5,2.06c-26.88,5.42-50.05,20.99-65.22,43.84s-20.55,50.25-15.12,77.14l1.04,5.14
		c1.57,10.08,1.82,20.25,0.74,30.3c-0.31,2.89,1.78,5.48,4.66,5.79c0.19,0.02,0.38,0.03,0.57,0.03c2.65,0,4.93-2,5.22-4.7
		c1.38-12.84,0.77-25.85-1.81-38.67l-0.94-4.66c-3.39-22.62,1.66-45.37,14.4-64.56c13.62-20.51,34.41-34.49,58.54-39.35
		c6.13-1.24,12.29-1.85,18.41-1.85c17.95,0,35.5,5.27,50.79,15.43c20.1,13.36,33.92,33.62,39.04,57.16l0.29,1.42
		c4.76,23.62,6.78,47.44,6.06,71.17c1.11-0.53,2.23-1.03,3.36-1.51c2.36-1,4.78-1.89,7.25-2.67c0.36-22.22-1.6-44.49-5.88-66.6
		l0.02-0.02l-0.49-2.45c-5.42-26.89-20.98-50.06-43.82-65.25C239.73,153.21,220.17,147.34,200.17,147.34"/>
	<path d="M265.79,428.06c-0.24,0.5-0.48,1.01-0.73,1.51c-1.27,2.61-0.19,5.76,2.42,7.03c0.74,0.36,1.53,0.53,2.3,0.53
		c1.08,0,2.14-0.33,3.02-0.95C270.3,433.63,267.95,430.92,265.79,428.06"/>
	<path d="M298.39,173.15c-1.07,0-2.16,0.33-3.09,1.01c-2.35,1.71-2.86,5-1.15,7.35c9.9,13.6,16.62,28.92,19.97,45.54l0.27,1.33
		c4.41,22.33,6.53,44.89,6.39,67.37c3.45-0.47,6.96-0.72,10.52-0.75c0.09-23.37-2.19-46.82-6.87-70.03l-0.44-2.16l-0.02-0.01
		c-3.79-17.28-10.96-33.25-21.32-47.48C301.61,173.9,300.01,173.15,298.39,173.15"/>
	<path d="M200.11,123.03c-8.39,0-16.85,0.83-25.25,2.53c-9.64,1.94-19.03,4.99-27.9,9.06c-2.64,1.21-3.8,4.33-2.59,6.97
		c0.88,1.93,2.79,3.07,4.78,3.07c0.73,0,1.48-0.15,2.19-0.48c8.14-3.73,16.75-6.53,25.6-8.31c7.71-1.55,15.46-2.32,23.16-2.32
		c26.65,0,52.63,9.16,73.71,26.43c0.98,0.8,2.15,1.19,3.32,1.19l0,0c1.52,0,3.03-0.66,4.07-1.93c1.84-2.25,1.51-5.56-0.74-7.4
		C257.48,133.01,229.16,123.02,200.11,123.03"/>
	<path d="M123.28,150.21c-1.16,0-2.34,0.39-3.31,1.18c-36.81,29.9-53.85,77.34-44.49,123.8l0.83,4.11
		c5.06,32.58-7.53,65.25-33.45,86.09c-2.26,1.82-2.62,5.13-0.81,7.39c1.04,1.29,2.56,1.96,4.1,1.96c1.16,0,2.32-0.38,3.29-1.16
		c30.1-24.19,44.06-62.7,36.44-100.5l-0.93-4.6c-6.6-41.12,9.1-82.5,41.65-108.94c2.25-1.83,2.6-5.14,0.77-7.4
		C126.33,150.87,124.81,150.21,123.28,150.21"/>
	<path d="M54.01,250.61c-0.07,0-0.14,0-0.21,0c-2.9,0.12-5.15,2.57-5.03,5.47c0.33,8.03,1.31,16.08,2.89,23.91l0.63,3.12
		c3.56,23.26-5.19,46.83-23.27,62.17c-2.22,1.88-2.49,5.2-0.61,7.41c1.04,1.23,2.52,1.86,4.01,1.86c1.2,0,2.41-0.41,3.4-1.25
		c21.82-18.5,31.87-47.4,26.22-75.41l-0.92-4.57c-0.98-5.83-1.6-11.77-1.84-17.69C59.15,252.82,56.82,250.61,54.01,250.61"/>
	<path d="M200.27,98.68c-10.04,0-20.15,1-30.22,3.03c-30.47,6.15-57.9,21.23-79.31,43.62c-20.93,21.88-34.71,49.15-39.87,78.86
		c-0.5,2.86,1.42,5.58,4.28,6.08c0.31,0.05,0.61,0.08,0.91,0.08c2.51,0,4.73-1.8,5.17-4.36c4.8-27.65,17.63-53.03,37.11-73.39
		c19.92-20.83,45.44-34.86,73.8-40.58c9.37-1.89,18.78-2.82,28.12-2.82c27.42,0,54.25,8.05,77.61,23.57
		c31.32,20.82,52.66,52.59,60.09,89.47l0.53,2.52c1.03,5.3,1.96,10.72,2.76,16.13c0.39,2.61,2.63,4.49,5.19,4.49
		c0.26,0,0.52-0.02,0.78-0.06c2.87-0.43,4.85-3.1,4.43-5.98c-0.96-6.45-2.09-12.9-3.35-19.18l-0.79-3.79h-0.05
		c-8.65-38.02-31.18-70.7-63.76-92.36C258.57,107.32,229.74,98.68,200.27,98.68"/>
	<path d="M349.69,265.53c-0.12,0-0.23,0-0.35,0.01c-2.9,0.18-5.1,2.68-4.92,5.58c0.52,8.31,0.76,16.62,0.71,24.91
		c3.58,0.57,7.08,1.37,10.49,2.38c0.12-9.3-0.12-18.63-0.71-27.96C354.74,267.68,352.43,265.53,349.69,265.53"/>
	<path d="M200.13,74.36c-11.65,0-23.32,1.17-34.88,3.5c-45.98,9.27-85.6,35.91-111.55,74.99C27.73,191.94,18.55,238.8,27.82,284.8
		l0.38,1.8c2.07,13.14-2.02,26.65-11.12,36.47c-1.97,2.13-1.85,5.46,0.28,7.43c1.01,0.94,2.29,1.4,3.57,1.4
		c1.41,0,2.82-0.57,3.86-1.68c11.81-12.75,16.82-30.51,13.4-47.51l-0.62-2.93c-7.75-42.3,1.04-85.2,24.89-121.11
		c24.4-36.74,61.65-61.78,104.87-70.5c10.88-2.2,21.85-3.29,32.81-3.29c7.33,0,14.66,0.49,21.94,1.48c0.24,0.03,0.48,0.05,0.71,0.05
		c2.59,0,4.85-1.92,5.2-4.55c0.39-2.88-1.63-5.53-4.5-5.92C215.73,74.89,207.93,74.36,200.13,74.36"/>
	<path d="M251.82,82.45c-2.22,0-4.29,1.42-5.01,3.65c-0.89,2.77,0.64,5.73,3.4,6.61c57,18.29,99.75,66.07,111.56,124.71l0.71,3.37
		c5.3,27.51,7.59,55.31,6.85,83.05c3.15,1.59,6.18,3.37,9.07,5.33c0.42,0.28,0.83,0.56,1.24,0.85c1.31-31.61-1.2-63.34-7.52-94.68
		l-1.04-4.92l-0.07,0.01c-13.91-60.12-58.57-108.8-117.59-127.73C252.89,82.54,252.35,82.45,251.82,82.45"/>
	<path d="M332,306c-39.77,0-72,32.23-72,72s32.23,72,72,72s72-32.23,72-72S371.77,306,332,306z M320.89,403.51
		c-0.83,0.83-2.01,1.52-3.05,1.52c-1.04,0-2.22-0.73-3.08-1.56l-19.38-19.38l6.16-6.16l16.34,16.34l43.2-43.51l6.06,6.27
		L320.89,403.51z"/>
</g>
</svg>
