<?xml version="1.0" encoding="utf-8"?>
<!-- Generator: Adobe Illustrator 24.1.0, SVG Export Plug-In . SVG Version: 6.00 Build 0)  -->
<svg version="1.1" id="Layer_6" xmlns="http://www.w3.org/2000/svg" xmlns:xlink="http://www.w3.org/1999/xlink" x="0px" y="0px"
	 viewBox="0 0 500 500" style="enable-background:new 0 0 500 500;" xml:space="preserve">
<g>
	<path d="M382,306c-39.77,0-72,32.23-72,72s32.23,72,72,72s72-32.23,72-72S421.77,306,382,306 M370.89,403.51
		c-0.83,0.83-2.01,1.52-3.05,1.52c-1.04,0-2.22-0.73-3.08-1.56l-19.38-19.38l6.16-6.16l16.34,16.34l43.2-43.51l6.06,6.27
		L370.89,403.51"/>
	<path d="M338.65,120C338.65,120,338.65,120,338.65,120H162.02c0,0,0,0,0,0c-5.78,0-11.05,2.38-14.83,6.16
		c-3.79,3.78-6.17,9.06-6.16,14.84v288c0,5.78,2.37,11.05,6.16,14.84c3.78,3.79,9.05,6.16,14.83,6.16c0,0,0,0,0,0h176.63
		c0,0,0,0,0,0c0.63,0,1.26-0.03,1.88-0.08c-1.69-0.98-3.34-2.01-4.95-3.1c-3.08-2.08-6-4.36-8.77-6.82h-164.8
		c-3.02,0-5.75-1.23-7.76-3.24c-2.01-2.02-3.23-4.74-3.24-7.76V141c0-3.02,1.23-5.75,3.24-7.76c2.02-2.01,4.74-3.23,7.76-3.24
		h176.63c3.02,0,5.75,1.23,7.76,3.24c2.01,2.02,3.23,4.74,3.24,7.76v160.54c0.01-0.01,0.03-0.01,0.04-0.02
		c3.22-1.36,6.55-2.53,9.96-3.48V141c0-5.78-2.37-11.05-6.16-14.84C349.7,122.38,344.43,120,338.65,120"/>
	<path d="M202.36,409.13h-5c0,2.52-1.01,4.76-2.66,6.42c-1.66,1.65-3.9,2.66-6.42,2.66c-2.52,0-4.76-1.01-6.42-2.66
		c-1.65-1.66-2.66-3.9-2.66-6.42c0-2.52,1.01-4.76,2.66-6.42c1.66-1.65,3.9-2.66,6.42-2.66c2.52,0,4.76,1.01,6.42,2.66
		c1.65,1.66,2.66,3.9,2.66,6.42H202.36h5c0-5.25-2.14-10.06-5.59-13.49c-3.44-3.45-8.24-5.59-13.49-5.59
		c-5.25,0-10.06,2.14-13.49,5.59c-3.45,3.44-5.59,8.24-5.59,13.49c0,5.25,2.14,10.06,5.59,13.49c3.44,3.45,8.24,5.59,13.49,5.59
		c5.25,0,10.06-2.14,13.49-5.59c3.45-3.44,5.59-8.24,5.59-13.49H202.36z"/>
	<path d="M264.79,409.13h-5c0,2.52-1.01,4.76-2.66,6.42c-1.66,1.65-3.9,2.66-6.42,2.66c-2.52,0-4.76-1.01-6.42-2.66
		c-1.65-1.66-2.66-3.9-2.66-6.42c0-2.52,1.01-4.76,2.66-6.42c1.66-1.65,3.9-2.66,6.42-2.66c2.52,0,4.76,1.01,6.42,2.66
		c1.65,1.66,2.66,3.9,2.66,6.42H264.79h5c0-5.25-2.14-10.06-5.59-13.49c-3.44-3.45-8.24-5.59-13.49-5.59
		c-5.25,0-10.06,2.14-13.49,5.59c-3.45,3.44-5.59,8.24-5.59,13.49c0,5.25,2.14,10.06,5.59,13.49c3.44,3.45,8.24,5.59,13.49,5.59
		c5.25,0,10.05-2.14,13.49-5.59c3.45-3.44,5.59-8.24,5.59-13.49H264.79z"/>
	<path d="M300.42,393.34c-1,0.68-1.93,1.45-2.77,2.29c-3.45,3.44-5.59,8.24-5.59,13.49c0,5.25,2.14,10.06,5.59,13.49
		c3.44,3.44,8.23,5.59,13.48,5.59c0,0,0.01,0,0.01,0c0,0,0.01,0,0.01,0c1.5,0,2.97-0.18,4.37-0.51c-2.3-3.07-4.39-6.3-6.25-9.68
		c-1.76-0.37-3.32-1.24-4.55-2.47c-1.65-1.66-2.66-3.9-2.66-6.42c0-1.7,0.46-3.28,1.27-4.63
		C302.11,400.88,301.13,397.16,300.42,393.34"/>
	<path d="M202.36,356.17h-5c0,2.52-1.01,4.76-2.66,6.42c-1.66,1.65-3.9,2.66-6.42,2.66c-2.52,0-4.76-1.01-6.42-2.66
		c-1.65-1.66-2.66-3.9-2.66-6.42c0-2.52,1.01-4.76,2.66-6.42c1.66-1.65,3.9-2.66,6.42-2.66c2.52,0,4.76,1.01,6.42,2.66
		c1.65,1.66,2.66,3.9,2.66,6.42H202.36h5c0-5.25-2.14-10.06-5.59-13.49c-3.44-3.45-8.24-5.59-13.49-5.59
		c-5.25,0-10.06,2.14-13.49,5.59c-3.45,3.44-5.59,8.24-5.59,13.49c0,5.25,2.14,10.05,5.59,13.49c3.44,3.45,8.24,5.59,13.49,5.59
		c5.25,0,10.06-2.14,13.49-5.59c3.45-3.44,5.59-8.24,5.59-13.49H202.36z"/>
	<path d="M264.79,356.17h-5c0,2.52-1.01,4.76-2.66,6.42c-1.66,1.65-3.9,2.66-6.42,2.66c-2.52,0-4.76-1.01-6.42-2.66
		c-1.65-1.66-2.66-3.9-2.66-6.42c0-2.52,1.01-4.76,2.66-6.42c1.66-1.65,3.9-2.66,6.42-2.66c2.52,0,4.76,1.01,6.42,2.66
		c1.65,1.66,2.66,3.9,2.66,6.42H264.79h5c0-5.25-2.14-10.06-5.59-13.49c-3.44-3.45-8.24-5.59-13.49-5.59
		c-5.25,0-10.06,2.14-13.49,5.59c-3.45,3.44-5.59,8.24-5.59,13.49c0,5.25,2.14,10.05,5.59,13.49c3.44,3.45,8.24,5.59,13.49,5.59
		c5.25,0,10.05-2.14,13.49-5.59c3.45-3.44,5.59-8.24,5.59-13.49H264.79z"/>
	<path d="M202.36,302.46h-5c0,2.52-1.01,4.76-2.66,6.42c-1.66,1.65-3.9,2.66-6.42,2.66c-2.52,0-4.76-1.01-6.42-2.66
		c-1.65-1.66-2.66-3.9-2.66-6.42c0-2.52,1.01-4.76,2.66-6.42c1.66-1.65,3.9-2.66,6.42-2.66c2.52,0,4.76,1.01,6.42,2.66
		c1.65,1.66,2.66,3.9,2.66,6.42H202.36h5c0-5.25-2.14-10.06-5.59-13.49c-3.44-3.45-8.24-5.59-13.49-5.59
		c-5.25,0-10.06,2.14-13.49,5.59c-3.45,3.44-5.59,8.24-5.59,13.49c0,5.25,2.14,10.05,5.59,13.49c3.44,3.45,8.24,5.59,13.49,5.59
		c5.25,0,10.06-2.14,13.49-5.59c3.45-3.44,5.59-8.24,5.59-13.49H202.36z"/>
	<path d="M265.79,302.46h-5c0,2.52-1.01,4.76-2.66,6.42c-1.66,1.65-3.9,2.66-6.42,2.66c-2.52,0-4.76-1.01-6.42-2.66
		c-1.65-1.66-2.66-3.9-2.66-6.42c0-2.52,1.01-4.76,2.66-6.42c1.66-1.65,3.9-2.66,6.42-2.66c2.52,0,4.76,1.01,6.42,2.66
		c1.65,1.66,2.66,3.9,2.66,6.42H265.79h5c0-5.25-2.14-10.06-5.59-13.49c-3.44-3.45-8.24-5.59-13.49-5.59
		c-5.25,0-10.06,2.14-13.49,5.59c-3.45,3.44-5.59,8.24-5.59,13.49c0,5.25,2.14,10.05,5.59,13.49c3.44,3.45,8.24,5.59,13.49,5.59
		c5.25,0,10.05-2.14,13.49-5.59c3.45-3.44,5.59-8.24,5.59-13.49H265.79z"/>
	<path d="M325.22,302.46h-5c0,2.52-1.01,4.76-2.66,6.42c-1.66,1.65-3.9,2.66-6.42,2.66c-2.52,0-4.76-1.01-6.42-2.66
		c-1.65-1.66-2.66-3.9-2.66-6.42c0-2.52,1.01-4.76,2.66-6.42c1.66-1.65,3.9-2.66,6.42-2.66c2.52,0,4.76,1.01,6.42,2.66
		c1.65,1.66,2.66,3.9,2.66,6.42H325.22h5c0-5.25-2.14-10.06-5.59-13.49c-3.44-3.45-8.24-5.59-13.49-5.59
		c-5.25,0-10.06,2.14-13.49,5.59c-3.45,3.44-5.59,8.24-5.59,13.49c0,5.25,2.14,10.05,5.59,13.49c3.44,3.45,8.24,5.59,13.49,5.59
		c5.25,0,10.06-2.14,13.49-5.59c3.45-3.44,5.59-8.24,5.59-13.49H325.22z"/>
	<path d="M202.36,247.9h-5c0,2.52-1.01,4.76-2.66,6.42c-1.66,1.65-3.9,2.66-6.42,2.66c-2.52,0-4.76-1.01-6.42-2.66
		c-1.65-1.66-2.66-3.9-2.66-6.42c0-2.52,1.01-4.76,2.66-6.42c1.66-1.65,3.9-2.66,6.42-2.66c2.52,0,4.76,1.01,6.42,2.66
		c1.65,1.66,2.66,3.9,2.66,6.42H202.36h5c0-5.25-2.14-10.06-5.59-13.49c-3.44-3.45-8.24-5.59-13.49-5.59
		c-5.25,0-10.06,2.14-13.49,5.59c-3.45,3.44-5.59,8.24-5.59,13.49c0,5.25,2.14,10.06,5.59,13.49c3.44,3.45,8.24,5.59,13.49,5.59
		c5.25,0,10.06-2.14,13.49-5.59c3.45-3.44,5.59-8.24,5.59-13.49H202.36z"/>
	<path d="M264.79,247.9h-5c0,2.52-1.01,4.76-2.66,6.42c-1.66,1.65-3.9,2.66-6.42,2.66c-2.52,0-4.76-1.01-6.42-2.66
		c-1.65-1.66-2.66-3.9-2.66-6.42c0-2.52,1.01-4.76,2.66-6.42c1.66-1.65,3.9-2.66,6.42-2.66c2.52,0,4.76,1.01,6.42,2.66
		c1.65,1.66,2.66,3.9,2.66,6.42H264.79h5c0-5.25-2.14-10.06-5.59-13.49c-3.44-3.45-8.24-5.59-13.49-5.59
		c-5.25,0-10.06,2.14-13.49,5.59c-3.45,3.44-5.59,8.24-5.59,13.49c0,5.25,2.14,10.06,5.59,13.49c3.44,3.45,8.24,5.59,13.49,5.59
		c5.25,0,10.06-2.14,13.49-5.59c3.45-3.44,5.59-8.24,5.59-13.49H264.79z"/>
	<path d="M325.22,247.9h-5c0,2.52-1.01,4.76-2.66,6.42c-1.66,1.65-3.9,2.66-6.42,2.66c-2.52,0-4.76-1.01-6.42-2.66
		c-1.65-1.66-2.66-3.9-2.66-6.42c0-2.52,1.01-4.76,2.66-6.42c1.66-1.65,3.9-2.66,6.42-2.66c2.52,0,4.76,1.01,6.42,2.66
		c1.65,1.66,2.66,3.9,2.66,6.42H325.22h5c0-5.25-2.14-10.06-5.59-13.49c-3.44-3.45-8.24-5.59-13.49-5.59
		c-5.25,0-10.05,2.14-13.49,5.59c-3.45,3.44-5.59,8.24-5.59,13.49c0,5.25,2.14,10.06,5.59,13.49c3.44,3.45,8.24,5.59,13.49,5.59
		c5.25,0,10.06-2.14,13.49-5.59c3.45-3.44,5.59-8.24,5.59-13.49H325.22z"/>
	<path d="M310.01,337.09C310.01,337.09,310,337.09,310.01,337.09c-0.01,0-0.02,0-0.02,0c-5.25,0-10.05,2.15-13.48,5.59
		c-3.45,3.44-5.59,8.24-5.59,13.49c0,5.25,2.14,10.05,5.59,13.49c0.98,0.98,2.08,1.86,3.26,2.62c0.29-4.31,0.91-8.53,1.84-12.64
		c-0.44-1.06-0.68-2.23-0.68-3.47c0-2.52,1.01-4.76,2.66-6.42c0.4-0.4,0.84-0.77,1.31-1.09c1.51-4.02,3.33-7.88,5.42-11.57
		C310.21,337.09,310.11,337.09,310.01,337.09"/>
	<path d="M315.22,205.11v-5H183.98c-1.92,0-3.65-0.78-4.94-2.06c-1.28-1.29-2.06-3.02-2.06-4.94v-26.62c0-1.92,0.78-3.65,2.06-4.94
		c1.29-1.28,3.02-2.06,4.94-2.06h131.23c1.92,0,3.65,0.78,4.94,2.06c1.28,1.29,2.06,3.02,2.06,4.94v26.62
		c0,1.92-0.78,3.65-2.06,4.94c-1.29,1.28-3.02,2.06-4.94,2.06V205.11v5c4.68,0,8.95-1.92,12.01-4.99c3.07-3.06,4.99-7.33,4.99-12.01
		v-26.62c0-4.68-1.92-8.95-4.99-12.01c-3.06-3.07-7.33-4.99-12.01-4.99H183.98c-4.68,0-8.95,1.92-12.01,4.99
		c-3.07,3.06-4.99,7.33-4.99,12.01v26.62c0,4.68,1.92,8.95,4.99,12.01c3.06,3.07,7.33,4.99,12.01,4.99h131.23V205.11z"/>
</g>
</svg>
